<svg viewBox="0 0 24 24" fill="none" xmlns="http://www.w3.org/2000/svg">
<path fill-rule="evenodd" clip-rule="evenodd" d="M24 4.29138e-07L12 9.53674e-07C12 6.62736 17.3726 12 24 12L24 4.29138e-07Z" fill="currentColor"/>
<path fill-rule="evenodd" clip-rule="evenodd" d="M12 12L12 24C18.6274 24 24 18.6274 24 12L12 12Z" fill="currentColor"/>
<path fill-rule="evenodd" clip-rule="evenodd" d="M12 4.29138e-07L-5.24537e-07 9.53674e-07C-2.34846e-07 6.62736 5.37258 12 12 12L12 4.29138e-07Z" fill="currentColor"/>
<path fill-rule="evenodd" clip-rule="evenodd" d="M2.00275e-06 12L9.53674e-07 24C6.62736 24 12 18.6274 12 12L2.00275e-06 12Z" fill="currentColor"/>
<path fill-rule="evenodd" clip-rule="evenodd" d="M24 4.29138e-07L12 9.53674e-07C12 6.62736 17.3726 12 24 12L24 4.29138e-07Z" fill="currentColor"/>
<path fill-rule="evenodd" clip-rule="evenodd" d="M12 12L12 24C18.6274 24 24 18.6274 24 12L12 12Z" fill="currentColor"/>
<path fill-rule="evenodd" clip-rule="evenodd" d="M12 4.29138e-07L-5.24537e-07 9.53674e-07C-2.34846e-07 6.62736 5.37258 12 12 12L12 4.29138e-07Z" fill="currentColor"/>
<path fill-rule="evenodd" clip-rule="evenodd" d="M2.00275e-06 12L9.53674e-07 24C6.62736 24 12 18.6274 12 12L2.00275e-06 12Z" fill="currentColor"/>
</svg>
