<svg viewBox="0 0 12 12" fill="none" xmlns="http://www.w3.org/2000/svg">
<path d="M5.5 2.06055H2C1.73478 2.06055 1.48043 2.1659 1.29289 2.35344C1.10536 2.54098 1 2.79533 1 3.06055V10.0605C1 10.3258 1.10536 10.5801 1.29289 10.7677C1.48043 10.9552 1.73478 11.0605 2 11.0605H9C9.26522 11.0605 9.51957 10.9552 9.70711 10.7677C9.89464 10.5801 10 10.3258 10 10.0605V6.56055" stroke="currentColor" stroke-linecap="round" stroke-linejoin="round"/>
<path d="M9.25 1.31066C9.44891 1.11175 9.7187 1 10 1C10.2813 1 10.5511 1.11175 10.75 1.31066C10.9489 1.50957 11.0607 1.77936 11.0607 2.06066C11.0607 2.34196 10.9489 2.61175 10.75 2.81066L6 7.56066L4 8.06066L4.5 6.06066L9.25 1.31066Z" stroke="currentColor" stroke-linecap="round" stroke-linejoin="round"/>
</svg>
