<svg viewBox="0 0 48 48" fill="none" xmlns="http://www.w3.org/2000/svg">
<g id="folder_data">
<mask id="mask0_6367_7072" style="mask-type:alpha" maskUnits="userSpaceOnUse" x="0" y="0" width="48" height="48">
<rect id="Bounding box" width="48" height="48" fill="currentColor"/>
</mask>
<g mask="url(#mask0_6367_7072)">
<path id="folder_data_2" d="M30.4956 46C29.5319 46 28.7083 45.6573 28.025 44.9719C27.3417 44.2865 27 43.4625 27 42.5C27 41.8 27.1833 41.1583 27.55 40.575C27.9167 39.9917 28.4 39.5667 29 39.3V27.15C28.4 26.8833 27.9167 26.4667 27.55 25.9C27.1833 25.3333 27 24.7077 27 24.0232C27 23.0411 27.3431 22.2083 28.0294 21.525C28.7157 20.8417 29.5407 20.5 30.5044 20.5C31.4681 20.5 32.2917 20.8427 32.975 21.5281C33.6583 22.2135 34 23.0375 34 24C34 24.7 33.8167 25.3333 33.45 25.9C33.0833 26.4667 32.6 26.8833 32 27.15V33.9L41 30.9V27.15C40.4 26.8833 39.9167 26.4667 39.55 25.9C39.1833 25.3333 39 24.7077 39 24.0232C39 23.0411 39.3432 22.2083 40.0294 21.525C40.7157 20.8417 41.5407 20.5 42.5045 20.5C43.4682 20.5 44.2917 20.8427 44.975 21.5281C45.6583 22.2135 46 23.0375 46 24C46 24.7 45.8167 25.3333 45.45 25.9C45.0833 26.4667 44.6 26.8833 44 27.15V33.0701L32 37.05V39.3C32.6 39.5667 33.0833 39.9917 33.45 40.575C33.8167 41.1583 34 41.7923 34 42.4768C34 43.4589 33.6569 44.2917 32.9706 44.975C32.2843 45.6583 31.4593 46 30.4956 46ZM7 40C6.2 40 5.5 39.6917 4.9 39.075C4.3 38.4583 4 37.7667 4 37V11C4 10.2333 4.3 9.54167 4.9 8.925C5.5 8.30833 6.2 8 7 8H21.05L24.05 11H41C41.825 11 42.5312 11.2938 43.1188 11.8813C43.7063 12.4688 44 13.175 44 14H22.8L19.8 11H7V37H24V40H7Z" fill="currentColor"/>
</g>
</g>
</svg>
