<svg viewBox="0 0 17 17" fill="none" xmlns="http://www.w3.org/2000/svg">
<path fill-rule="evenodd" clip-rule="evenodd" d="M8.33333 16.6667C12.9357 16.6667 16.6667 12.9357 16.6667 8.33333C16.6667 3.73096 12.9357 0 8.33333 0C3.73096 0 0 3.73096 0 8.33333C0 12.9357 3.73096 16.6667 8.33333 16.6667ZM8.54983 4.68773C8.1619 4.62119 7.76293 4.69409 7.4236 4.89352C7.08426 5.09295 6.82646 5.40604 6.69584 5.77734C6.54312 6.2115 6.06735 6.43964 5.6332 6.28691C5.19904 6.13419 4.97089 5.65842 5.12362 5.22427C5.38485 4.48167 5.90046 3.8555 6.57913 3.45664C7.25779 3.05778 8.05573 2.91197 8.83159 3.04506C9.60746 3.17814 10.3112 3.58152 10.8182 4.18374C11.325 4.78581 11.6024 5.54777 11.6014 6.33474C11.6011 7.61012 10.6555 8.45236 9.98032 8.90251C9.61729 9.14453 9.26019 9.32248 8.99714 9.43939C8.86443 9.49838 8.75268 9.54313 8.67215 9.57381C8.63182 9.58918 8.59912 9.60108 8.57532 9.60955L8.54637 9.61968L8.53716 9.62283L8.53391 9.62393L8.53263 9.62436L8.53159 9.6247C8.09497 9.77024 7.62304 9.53428 7.4775 9.09766C7.33204 8.6613 7.56764 8.18967 8.00376 8.04383L8.01697 8.03919C8.02979 8.03463 8.0508 8.02701 8.07882 8.01633C8.13502 7.99493 8.21858 7.96156 8.32024 7.91638C8.52594 7.82495 8.79384 7.69041 9.05581 7.51576C9.63048 7.13265 9.93473 6.72508 9.93473 6.33414V6.33289C9.93532 5.9393 9.79659 5.55819 9.54311 5.25708C9.28963 4.95596 8.93777 4.75427 8.54983 4.68773ZM8.33333 11.334C7.8731 11.334 7.5 11.7071 7.5 12.1673C7.5 12.6276 7.8731 13.0007 8.33333 13.0007H8.34167C8.8019 13.0007 9.175 12.6276 9.175 12.1673C9.175 11.7071 8.8019 11.334 8.34167 11.334H8.33333Z" fill="currentColor"/>
</svg>
