<svg viewBox="0 0 48 48" fill="none" xmlns="http://www.w3.org/2000/svg">
<g id="movie">
<mask id="mask0_6367_7069" style="mask-type:alpha" maskUnits="userSpaceOnUse" x="0" y="0" width="48" height="48">
<rect id="Bounding box" width="48" height="48" fill="currentColor"/>
</mask>
<g mask="url(#mask0_6367_7069)">
<path id="movie_2" d="M7 8L10.7 15.6H17.2L13.5 8H17.95L21.65 15.6H28.15L24.45 8H28.9L32.6 15.6H39.1L35.4 8H41C41.8 8 42.5 8.3 43.1 8.9C43.7 9.5 44 10.2 44 11V37C44 37.8 43.7 38.5 43.1 39.1C42.5 39.7 41.8 40 41 40H7C6.2 40 5.5 39.7 4.9 39.1C4.3 38.5 4 37.8 4 37V11C4 10.2 4.3 9.5 4.9 8.9C5.5 8.3 6.2 8 7 8ZM7 18.6V37H41V18.6H7Z" fill="currentColor"/>
</g>
</g>
</svg>
