<svg viewBox="0 0 18 20" fill="currentColor" xmlns="http://www.w3.org/2000/svg">
<path d="M16 0H2C0.9 0 0 0.857143 0 1.90476V15.2381C0 16.2857 0.9 17.1429 2 17.1429H6L9 20L12 17.1429H16C17.1 17.1429 18 16.2857 18 15.2381V1.90476C18 0.857143 17.1 0 16 0ZM10 15.2381H8V13.3333H10V15.2381ZM12.1 7.90476L11.2 8.76191C10.4 9.42857 10 10 10 11.4286H8V10.9524C8 9.90476 8.4 8.95238 9.2 8.28572L10.4 7.04762C10.8 6.76191 11 6.28571 11 5.71429C11 4.66667 10.1 3.80952 9.00004 3.80952C7.90004 3.80952 7.00004 4.66667 7.00004 5.71429H5.00004C5.00004 3.61905 6.80004 1.90476 9.00004 1.90476C11.2 1.90476 13 3.61905 13 5.71429C13 6.57143 12.6 7.33333 12.1 7.90476Z"/>
</svg>
