<svg viewBox="0 0 127 22" fill="none" xmlns="http://www.w3.org/2000/svg">
<path d="M3.01034 10.2081V3.02174H0.378906V0.448242H8.5998V3.02174H5.98338V10.2081H3.01034Z" fill="currentColor"/>
<path d="M15.3226 10.2081L14.9697 9.06517H11.4374L11.0845 10.2081H7.70605L11.3248 0.448242H15.0786L18.6973 10.2081H15.3226ZM13.2054 3.34296L12.2182 6.49914H14.1589L13.2054 3.34296Z" fill="currentColor"/>
<path d="M19.2192 10.2081V0.448242H22.1885V7.63461H25.9086V10.2081H19.2192Z" fill="currentColor"/>
<path d="M27.0981 10.2081V0.448242H30.0712V7.63461H33.7912V10.2081H27.0981Z" fill="currentColor"/>
<path d="M37.9512 0.448242H34.9819V10.2081H37.9512V0.448242Z" fill="currentColor"/>
<path d="M46.1305 10.2081L42.5118 5.26281V10.2081H39.5425V0.448242H42.5981L46.0103 5.07232V0.448242H48.9834V10.2081H46.1305Z" fill="currentColor"/>
<path d="M57.1598 10.2081L53.5411 5.26281V10.2081H50.5718V0.448242H53.6312L57.0434 5.07232V0.448242H60.0127V10.2081H57.1598Z" fill="currentColor"/>
<path d="M67.7934 9.06517H64.2611L63.9082 10.2081H60.5298L64.1485 0.448242H67.9023L71.1043 9.08384L67.7934 9.06517ZM66.0291 3.34296L65.0569 6.49914H66.9976L66.0291 3.34296Z" fill="currentColor"/>
<path d="M3.01034 21.3761V14.1897H0.378906V11.6162H8.5998V14.1897H5.98338V21.3761H3.01034Z" fill="currentColor"/>
<path d="M9.6582 21.3761V11.6162H17.1021V14.1897H12.6275V15.1571H16.9969V17.7306H12.6275V18.7988H17.1021V21.3761H9.6582Z" fill="currentColor"/>
<path d="M24.9105 21.3761V17.6447H21.3931V21.3761H18.4238V11.6162H21.3931V15.0712H24.9105V11.6162H27.8797V21.3761H24.9105Z" fill="currentColor"/>
<path d="M36.0553 21.3761L32.4366 16.4308V21.3761H29.4673V11.6162H32.5267L35.9389 16.2403V11.6162H38.9082V21.3761H36.0553Z" fill="currentColor"/>
<path d="M43.4649 11.6162H40.4956V21.3761H43.4649V11.6162Z" fill="currentColor"/>
<path d="M50.778 21.3761L48.5707 17.936L48.0264 18.6681V21.3761H45.0571V11.6162H48.0264V15.2729L50.6015 11.6162H54.2353L50.5265 16.1506L54.3967 21.3761H50.778Z" fill="currentColor"/>
<path d="M61.4692 21.3761L61.1164 20.2331H57.5878L57.2349 21.3761H53.8564L57.4714 11.6162H61.2252L64.8402 21.3761H61.4692ZM59.3521 14.5109L58.3911 17.6596H60.3356L59.3521 14.5109Z" fill="currentColor"/>
<path d="M64.772 17.3636V12.7097H67.775V17.2628C67.775 18.2003 68.3907 18.9436 69.6107 18.9436C70.8307 18.9436 71.435 18.1966 71.435 17.2628V12.7097H74.4381V17.3487C74.4381 19.7802 72.9103 21.5507 69.5994 21.5507C66.2885 21.5507 64.772 19.7803 64.772 17.3636ZM68.0791 12.1345C67.8198 12.1345 67.5664 12.0579 67.3509 11.9145C67.1353 11.7711 66.9674 11.5673 66.8684 11.3289C66.7693 11.0905 66.7436 10.8282 66.7945 10.5752C66.8453 10.3223 66.9705 10.09 67.1541 9.90783C67.3377 9.72567 67.5715 9.60181 67.8258 9.55194C68.0802 9.50206 68.3437 9.52841 68.5831 9.62765C68.8224 9.72688 69.0267 9.89454 69.1702 10.1094C69.3137 10.3243 69.3899 10.5767 69.3892 10.8346C69.3907 11.0061 69.3578 11.1761 69.2925 11.3347C69.2271 11.4933 69.1306 11.6374 69.0086 11.7584C68.8866 11.8795 68.7415 11.9751 68.5819 12.0397C68.4223 12.1042 68.2514 12.1365 68.0791 12.1345ZM71.2549 12.1345C70.9962 12.1315 70.7443 12.0525 70.5308 11.9073C70.3172 11.7621 70.1516 11.5573 70.0549 11.3186C69.9581 11.08 69.9345 10.8181 69.9871 10.5662C70.0396 10.3142 70.1659 10.0833 70.3501 9.90268C70.5343 9.72201 70.7681 9.59963 71.022 9.55096C71.276 9.50228 71.5388 9.52949 71.7772 9.62915C72.0157 9.72881 72.2191 9.89645 72.362 10.111C72.5048 10.3255 72.5807 10.5773 72.5799 10.8346C72.581 11.0072 72.5473 11.1782 72.4808 11.3376C72.4144 11.497 72.3165 11.6415 72.193 11.7627C72.0695 11.8838 71.9228 11.9792 71.7617 12.043C71.6006 12.1069 71.4282 12.138 71.2549 12.1345Z" fill="currentColor"/>
<path d="M76.0562 21.3761V11.6162H79.0292V18.7988H82.7492V21.3761H76.0562Z" fill="currentColor"/>
<path d="M86.9082 11.6162H83.939V21.3761H86.9082V11.6162Z" fill="currentColor"/>
<path d="M94.2208 21.3761L92.0136 17.936L91.4693 18.6681V21.3761H88.5V11.6162H91.4693V15.2729L94.0407 11.6162H97.6744L93.9693 16.1506L97.8358 21.3761H94.2208Z" fill="currentColor"/>
<path d="M97.251 16.5022C97.251 13.5141 99.5896 11.4561 102.619 11.4561C105.648 11.4561 107.987 13.5029 107.987 16.5022C107.987 19.5015 105.648 21.5521 102.619 21.5521C99.5896 21.5521 97.251 19.5015 97.251 16.5022ZM104.973 16.5022C104.973 15.1426 104.045 14.0594 102.619 14.0594C101.192 14.0594 100.265 15.1426 100.265 16.5022C100.265 17.8618 101.192 18.945 102.619 18.945C104.045 18.945 104.973 17.8618 104.973 16.5022Z" fill="currentColor"/>
<path d="M108.516 16.5022C108.516 13.5141 110.854 11.4561 113.884 11.4561C116.913 11.4561 119.252 13.5029 119.252 16.5022C119.252 19.5015 116.913 21.5521 113.884 21.5521C110.854 21.5521 108.516 19.5015 108.516 16.5022ZM116.234 16.5022C116.234 15.1426 115.31 14.0594 113.884 14.0594C112.457 14.0594 111.53 15.1426 111.53 16.5022C111.53 17.8618 112.457 18.945 113.884 18.945C115.31 18.945 116.234 17.8618 116.234 16.5022Z" fill="currentColor"/>
<path d="M120.307 21.3761V11.6162H123.28V18.7988H127V21.3761H120.307Z" fill="currentColor"/>
</svg>
