<svg viewBox="0 0 11 11" fill="none" xmlns="http://www.w3.org/2000/svg">
<path fill-rule="evenodd" clip-rule="evenodd" d="M0.146447 4.03553C-0.0488155 3.84027 -0.0488155 3.52369 0.146447 3.32843L3.32843 0.146447C3.52369 -0.0488155 3.84027 -0.0488155 4.03553 0.146447C4.2308 0.341709 4.2308 0.658291 4.03553 0.853554L1.70711 3.18198H7.24938V4.18198H1.70711L4.03553 6.51041C4.2308 6.70567 4.2308 7.02225 4.03553 7.21751C3.84027 7.41278 3.52369 7.41278 3.32843 7.21751L0.146447 4.03553ZM7.25 3.18198C7.70963 3.18198 8.16475 3.27251 8.58939 3.4484C9.01403 3.62429 9.39987 3.8821 9.72487 4.20711C10.0499 4.53211 10.3077 4.91795 10.4836 5.34259C10.6595 5.76723 10.75 6.22235 10.75 6.68198C10.75 7.14161 10.6595 7.59673 10.4836 8.02137C10.3077 8.44601 10.0499 8.83185 9.72487 9.15685C9.39987 9.48186 9.01403 9.73967 8.58939 9.91556C8.16475 10.0915 7.70963 10.182 7.25 10.182H4.25C3.97386 10.182 3.75 9.95812 3.75 9.68198C3.75 9.40584 3.97386 9.18198 4.25 9.18198H7.25C7.5783 9.18198 7.9034 9.11732 8.20671 8.99168C8.51002 8.86604 8.78562 8.68189 9.01777 8.44975C9.24991 8.2176 9.43406 7.942 9.5597 7.63869C9.68534 7.33537 9.75 7.01029 9.75 6.68198C9.75 6.35368 9.68534 6.02859 9.5597 5.72527C9.43406 5.42196 9.24991 5.14636 9.01777 4.91421C8.78562 4.68207 8.51002 4.49792 8.20671 4.37228C7.90339 4.24664 7.5783 4.18198 7.25 4.18198V3.18198Z" fill="currentColor"/>
</svg>
