<svg viewBox="0 0 26 26" fill="none" xmlns="http://www.w3.org/2000/svg">
<rect x="1" y="1" width="24" height="24" rx="12" stroke="currentColor" stroke-width="1.33"/>
<path d="M18.3327 18V16.6667C18.3327 15.9594 18.0517 15.2811 17.5516 14.781C17.0515 14.281 16.3733 14 15.666 14H10.3327C9.62544 14 8.94716 14.281 8.44706 14.781C7.94697 15.2811 7.66602 15.9594 7.66602 16.6667V18" stroke="currentColor" stroke-width="1.33333" stroke-linecap="round" stroke-linejoin="round"/>
<path d="M12.9997 12.3333C14.4724 12.3333 15.6663 11.1394 15.6663 9.66667C15.6663 8.19391 14.4724 7 12.9997 7C11.5269 7 10.333 8.19391 10.333 9.66667C10.333 11.1394 11.5269 12.3333 12.9997 12.3333Z" stroke="currentColor" stroke-width="1.33333" stroke-linecap="round" stroke-linejoin="round"/>
</svg>
